<svg width="21" height="20" viewBox="0 0 21 20" fill="none" xmlns="http://www.w3.org/2000/svg">
<path d="M8.819 0.0717464C7.61888 0.249233 6.55124 0.581055 5.56153 1.07493C3.78472 1.97779 2.10923 3.60604 1.15069 5.36547C-0.540395 8.48305 -0.353363 12.4263 1.61827 15.3973C2.45991 16.6551 3.87824 17.9747 5.15629 18.6847C6.95647 19.6724 9.13851 20.1508 10.9932 19.9579C14.4611 19.5875 17.2432 17.7818 18.9577 14.7954C19.3084 14.1858 19.3941 13.7768 19.2227 13.4604C19.1058 13.2597 18.7395 13.0823 18.4044 13.0823C18.0537 13.0823 17.8589 13.2675 17.477 13.9697C16.9159 15.0269 15.8015 16.1999 14.6638 16.9484C11.2816 19.1631 6.83179 18.5998 3.96396 15.5979C3.04439 14.6333 2.49888 13.715 2.09364 12.4495C1.17407 9.61742 1.96116 6.36865 4.06527 4.25425C4.82119 3.498 5.51477 3.01185 6.4811 2.54112C9.72299 0.966895 13.4558 1.60739 16.0587 4.17708C16.8692 4.98735 17.8745 6.54614 17.6641 6.67732C17.6095 6.70819 17.3601 6.77764 17.1108 6.83166C16.5419 6.95513 16.3782 7.11718 16.4094 7.53389C16.4172 7.64192 18.4512 9.16213 18.9733 9.43994C19.3863 9.66372 19.4798 9.55569 20.2825 7.98146C20.6877 7.1712 21.0151 6.45354 20.9995 6.3918C20.9839 6.32235 20.8904 6.2066 20.7813 6.12943C20.5942 5.99053 20.5709 5.99053 20.0253 6.12943L19.4642 6.27605L19.1603 5.63556C18.007 3.2665 15.9808 1.4762 13.3935 0.550188C12.0765 0.08718 10.1438 -0.121173 8.819 0.0717464Z" fill="#151515"/>
<path d="M9.7775 4.16934C9.6606 4.23108 9.52812 4.35455 9.48136 4.43943C9.4346 4.53203 9.40343 5.56608 9.40343 7.21748V9.85662L9.62943 10.0804C9.93336 10.3736 10.3853 10.3891 10.7049 10.119L10.9231 9.93379V4.5166L10.7204 4.32368C10.4789 4.07674 10.058 4.01501 9.7775 4.16934Z" fill="#151515"/>
<path d="M7.88385 6.69276C7.17468 7.07088 6.22394 8.05092 5.87325 8.76086C5.44464 9.63286 5.32774 10.1808 5.3667 11.1839C5.39008 11.8553 5.44463 12.164 5.60049 12.6038C6.01352 13.7382 6.86296 14.7259 7.90722 15.2661C8.72549 15.6905 9.23983 15.814 10.2217 15.814C10.9699 15.814 11.1647 15.7831 11.7414 15.5825C13.261 15.0578 14.3287 13.962 14.8352 12.4263C15.1235 11.5466 15.1235 10.3814 14.8352 9.49396C14.5858 8.74543 13.978 7.80398 13.4558 7.3564C13.0194 6.986 12.1544 6.44582 11.9986 6.44582C11.9206 6.44582 11.8972 6.63103 11.8972 7.20979V7.98146L12.2557 8.23612C12.6765 8.52936 13.0662 9.03095 13.3623 9.65601C13.5494 10.065 13.5727 10.1962 13.5727 10.9601C13.5727 11.6547 13.5416 11.8862 13.3935 12.2334C13.0428 13.09 12.2791 13.8462 11.4297 14.1781C10.8062 14.4173 9.81651 14.4481 9.20086 14.2552C7.04999 13.5839 6.10704 11.1299 7.24482 9.20072C7.44744 8.86118 8.25791 8.06635 8.39818 8.06635C8.43715 8.06635 8.46832 7.70366 8.46832 7.25609C8.46832 6.80851 8.44494 6.44582 8.41377 6.44582C8.3748 6.44582 8.14101 6.56157 7.88385 6.69276Z" fill="#151515"/>
</svg>
